# xmcd
#
# Track frame offsets:
# 150
# 20407
# 43030
# 70347
# 94327
# 119027
# 138515
# 168632
# 201595
# 218730
# 240202
#
# Disc length: 3437 seconds
#
# Revision: 0
# Processed by: cddbd v1.4PL0 Copyright (c) Steve Scherf et al.
# Submitted via: MacMP3 Pro 5.0 (http://mp3.act2.co.jp/)
#
DISCID=a60d6b0b
DTITLE=Í€Íœ≈@…}…L - Darknness1/2
DYEAR=1900
DGENRE=
TTITLE0=Ïs‚‘«...‚J«(TM)Á~«»Á?
TTITLE1=«?«√Ìj«(TM)…s…A…m«?Ìe«¢«?
TTITLE2=Á`Ì®
TTITLE3=…O…b…h≈E…o…C
TTITLE4=‡?«¢‰∑«?«µ«?ËÛÛD
TTITLE5=ÒY«Õ«?« 
TTITLE6=ÍV„ª(B)
TTITLE7=Û[Ô»«Õ«√«<«“«ª«©
TTITLE8=«¯«¬«°«?Ì<sum>«¢‰˜ÂW«√…u…„≈[…X
TTITLE9=«¯«¬«°«?Ì<sum>«¢‰˜ÂW«√…u…„≈[…X≈`Á∞Ò»«’«?«ß«Æ«µ«<«¢
TTITLE10=…}…C≈E…}…Ï(…V…Ï…O…„…o≈[…W…·…Ï)
EXTD=
EXTT0=
EXTT1=
EXTT2=
EXTT3=
EXTT4=
EXTT5=
EXTT6=
EXTT7=
EXTT8=
EXTT9=
EXTT10=
PLAYORDER=
